<?xml version="1.0" encoding="utf-8"?>
<!-- Generator: Adobe Illustrator 16.0.0, SVG Export Plug-In . SVG Version: 6.00 Build 0)  -->
<!DOCTYPE svg PUBLIC "-//W3C//DTD SVG 1.1//EN" "http://www.w3.org/Graphics/SVG/1.1/DTD/svg11.dtd">
<svg version="1.1" id="图层_1" xmlns="http://www.w3.org/2000/svg" xmlns:xlink="http://www.w3.org/1999/xlink" x="0px" y="0px"
	 width="300px" height="300px" viewBox="0 0 300 300" enable-background="new 0 0 300 300" xml:space="preserve">
<g>
	<path fill="none" stroke="#D7EEFB" stroke-width="1.5" stroke-miterlimit="10" d="M143.824,91.349
		c-0.025-0.009-0.048-0.02-0.071-0.028c3.261-5.072,4.739-10.235,4.07-13.629c-0.26-1.317-3.202,0.88-4.129,0.206
		c-0.928-0.674,0.251-4.153-1.086-3.989c-3.482,0.423-8.014,3.504-11.861,8.286"/>
	<path fill="none" stroke="#D7EEFB" stroke-width="1.5" stroke-miterlimit="10" d="M118.036,91.837
		c-3.378-5.151-4.918-10.433-4.242-13.883c0.258-1.323,3.201,0.872,4.13,0.198c0.927-0.671-0.254-4.15,1.08-3.989
		c3.433,0.412,7.889,3.414,11.702,8.083c0.015-0.017,0.028-0.034,0.041-0.051"/>
	<path fill="none" stroke="#D7EEFB" stroke-width="1.5" stroke-miterlimit="10" d="M139.267,106.561
		c-0.038-0.011-0.076-0.02-0.114-0.028c-0.29,6.159-2.149,11.344-4.728,13.739c-0.986,0.917-2.077-2.587-3.225-2.587
		c-1.145,0-2.233,3.507-3.219,2.593c-2.534-2.35-4.373-7.397-4.716-13.415"/>
	<path fill="none" stroke="#D7EEFB" stroke-width="1.5" stroke-miterlimit="10" d="M139.267,106.561
		c5.786,1.5,11.105,1.306,14.106-0.367c1.173-0.655-1.826-2.776-1.473-3.865c0.355-1.092,4.026-1.043,3.46-2.265
		c-1.479-3.18-5.805-6.534-11.536-8.714"/>
	<path fill="none" stroke="#D7EEFB" stroke-width="1.5" stroke-miterlimit="10" d="M118.036,91.837
		c0.003,0.003,0.006,0.008,0.009,0.011c-5.619,2.187-9.852,5.496-11.304,8.633c-0.566,1.219,3.107,1.171,3.461,2.26
		c0.354,1.092-2.644,3.213-1.467,3.868c3.076,1.709,8.582,1.876,14.53,0.251c0,0,0,0,0,0.003"/>
	
		<line fill="none" stroke="#D7EEFB" stroke-width="1.5" stroke-miterlimit="10" x1="130.747" y1="82.194" x2="130.808" y2="95.761"/>
	
		<line fill="none" stroke="#D7EEFB" stroke-width="1.5" stroke-miterlimit="10" x1="130.709" y1="95.905" x2="118.036" y2="91.837"/>
	<line fill="none" stroke="#D7EEFB" stroke-width="1.5" stroke-miterlimit="10" x1="130.709" y1="95.905" x2="130.74" y2="95.917"/>
	
		<line fill="none" stroke="#D7EEFB" stroke-width="1.5" stroke-miterlimit="10" x1="130.709" y1="95.905" x2="130.808" y2="95.761"/>
	
		<line fill="none" stroke="#D7EEFB" stroke-width="1.5" stroke-miterlimit="10" x1="130.709" y1="95.905" x2="123.266" y2="106.862"/>
	
		<line fill="none" stroke="#D7EEFB" stroke-width="1.5" stroke-miterlimit="10" x1="130.808" y1="95.761" x2="139.267" y2="106.561"/>
	
		<line fill="none" stroke="#D7EEFB" stroke-width="1.5" stroke-miterlimit="10" x1="130.808" y1="95.761" x2="143.824" y2="91.349"/>
</g>
<g>
	<path fill="none" stroke="#D7EEFB" stroke-width="1.5" stroke-linecap="round" stroke-linejoin="round" stroke-miterlimit="10" d="
		M257.581,60.013c-1.729-5.319-7.442-8.23-12.764-6.502c-0.447,0.146-0.876,0.32-1.288,0.52c0.062-0.454,0.096-0.915,0.096-1.386
		c0-5.595-4.532-10.129-10.129-10.129c-5.594,0-10.128,4.535-10.128,10.129c0,0.471,0.034,0.932,0.095,1.386
		c-0.411-0.2-0.839-0.375-1.286-0.52c-5.32-1.729-11.035,1.183-12.764,6.502c-1.729,5.322,1.184,11.036,6.502,12.765
		c0.448,0.146,0.898,0.255,1.349,0.335c-0.316,0.332-0.616,0.684-0.894,1.066c-3.287,4.524-2.285,10.859,2.242,14.147
		c4.525,3.29,10.86,2.285,14.148-2.24c0.275-0.381,0.52-0.774,0.735-1.178c0.217,0.404,0.461,0.797,0.736,1.178
		c3.29,4.524,9.623,5.529,14.148,2.24c4.527-3.288,5.529-9.623,2.242-14.147c-0.277-0.382-0.576-0.734-0.895-1.066
		c0.452-0.08,0.903-0.189,1.349-0.335C256.397,71.049,259.31,65.335,257.581,60.013z"/>
	<path fill="none" stroke="#D7EEFB" stroke-miterlimit="10" d="M237.094,66.671c0.119,0.37,0.202,0.758,0.202,1.168
		c0,1.263-0.622,2.375-1.572,3.064"/>
	<path fill="none" stroke="#D7EEFB" stroke-miterlimit="10" d="M231.271,70.904c0.626,0.458,1.391,0.733,2.226,0.733
		c0.836,0,1.602-0.276,2.228-0.733"/>
	<path fill="none" stroke="#D7EEFB" stroke-miterlimit="10" d="M233.496,64.041c-1.687,0-3.101,1.107-3.596,2.63"/>
	<path fill="none" stroke="#D7EEFB" stroke-miterlimit="10" d="M233.496,64.041c1.688,0,3.104,1.107,3.598,2.63"/>
	<path fill="none" stroke="#D7EEFB" stroke-miterlimit="10" d="M229.9,66.671c-0.12,0.37-0.204,0.758-0.204,1.168
		c0,1.263,0.625,2.375,1.574,3.064"/>
	<line fill="none" stroke="#D7EEFB" stroke-miterlimit="10" x1="233.496" y1="64.041" x2="233.496" y2="59.681"/>
	<line fill="none" stroke="#D7EEFB" stroke-miterlimit="10" x1="233.496" y1="59.681" x2="233.496" y2="58.958"/>
	<g>
		<path fill="#D7EEFB" d="M233.496,56.74c0.535,0,0.971,0.435,0.971,0.969c0,0.536-0.436,0.972-0.971,0.972
			c-0.534,0-0.969-0.436-0.969-0.972C232.527,57.174,232.962,56.74,233.496,56.74 M233.496,55.74c-1.088,0-1.969,0.88-1.969,1.969
			s0.881,1.972,1.969,1.972c1.089,0,1.971-0.884,1.971-1.972S234.585,55.74,233.496,55.74L233.496,55.74z"/>
	</g>
	<g>
		<path fill="#D7EEFB" d="M224.063,63.539c0.535,0,0.971,0.435,0.971,0.969c0,0.535-0.436,0.971-0.971,0.971
			c-0.534,0-0.969-0.436-0.969-0.971C223.094,63.974,223.528,63.539,224.063,63.539 M224.063,62.539
			c-1.088,0-1.969,0.881-1.969,1.969c0,1.088,0.881,1.971,1.969,1.971c1.089,0,1.971-0.882,1.971-1.971
			C226.033,63.42,225.151,62.539,224.063,62.539L224.063,62.539z"/>
	</g>
	<g>
		<path fill="#D7EEFB" d="M227.633,74.841c0.535,0,0.971,0.435,0.971,0.969c0,0.535-0.436,0.971-0.971,0.971
			s-0.971-0.436-0.971-0.971C226.662,75.276,227.098,74.841,227.633,74.841 M227.633,73.841c-1.088,0-1.971,0.881-1.971,1.969
			s0.883,1.971,1.971,1.971c1.089,0,1.971-0.882,1.971-1.971S228.722,73.841,227.633,73.841L227.633,73.841z"/>
	</g>
	<g>
		<path fill="#D7EEFB" d="M239.275,74.926c0.535,0,0.971,0.435,0.971,0.969c0,0.535-0.436,0.971-0.971,0.971
			s-0.971-0.436-0.971-0.971C238.305,75.361,238.74,74.926,239.275,74.926 M239.275,73.926c-1.089,0-1.971,0.881-1.971,1.969
			c0,1.088,0.882,1.971,1.971,1.971c1.088,0,1.971-0.883,1.971-1.971C241.246,74.807,240.363,73.926,239.275,73.926L239.275,73.926z
			"/>
	</g>
	<g>
		<path fill="#D7EEFB" d="M243.099,63.879c0.535,0,0.971,0.435,0.971,0.969c0,0.535-0.436,0.971-0.971,0.971
			s-0.971-0.436-0.971-0.971C242.128,64.313,242.563,63.879,243.099,63.879 M243.099,62.879c-1.088,0-1.971,0.881-1.971,1.969
			c0,1.088,0.883,1.971,1.971,1.971s1.971-0.883,1.971-1.971C245.069,63.76,244.187,62.879,243.099,62.879L243.099,62.879z"/>
	</g>
	<line fill="none" stroke="#D7EEFB" stroke-miterlimit="10" x1="225.736" y1="65.318" x2="229.9" y2="66.671"/>
	<line fill="none" stroke="#D7EEFB" stroke-miterlimit="10" x1="225.051" y1="65.095" x2="225.736" y2="65.318"/>
	<line fill="none" stroke="#D7EEFB" stroke-miterlimit="10" x1="228.701" y1="74.441" x2="228.276" y2="75.024"/>
	<line fill="none" stroke="#D7EEFB" stroke-miterlimit="10" x1="228.701" y1="74.441" x2="231.271" y2="70.904"/>
	<line fill="none" stroke="#D7EEFB" stroke-miterlimit="10" x1="238.293" y1="74.441" x2="238.716" y2="75.024"/>
	<line fill="none" stroke="#D7EEFB" stroke-miterlimit="10" x1="238.293" y1="74.441" x2="235.724" y2="70.904"/>
	<line fill="none" stroke="#D7EEFB" stroke-miterlimit="10" x1="241.943" y1="65.095" x2="241.258" y2="65.318"/>
	<line fill="none" stroke="#D7EEFB" stroke-miterlimit="10" x1="241.258" y1="65.318" x2="237.094" y2="66.671"/>
</g>
<g>
	<line fill="none" stroke="#D7EEFB" stroke-width="1.5" stroke-miterlimit="10" x1="63.024" y1="7.48" x2="63.024" y2="31.212"/>
	<polyline fill="none" stroke="#D7EEFB" stroke-width="1.5" stroke-miterlimit="10" points="70.981,11.434 63.024,19.392 
		55.069,11.434 	"/>
	<line fill="none" stroke="#D7EEFB" stroke-width="1.5" stroke-miterlimit="10" x1="42.471" y1="19.346" x2="63.024" y2="31.212"/>
	<polyline fill="none" stroke="#D7EEFB" stroke-width="1.5" stroke-miterlimit="10" points="49.876,14.433 52.787,25.303 
		41.918,28.214 	"/>
	<line fill="none" stroke="#D7EEFB" stroke-width="1.5" stroke-miterlimit="10" x1="42.471" y1="43.08" x2="63.024" y2="31.212"/>
	<polyline fill="none" stroke="#D7EEFB" stroke-width="1.5" stroke-miterlimit="10" points="41.918,34.211 52.787,37.125 
		49.875,47.993 	"/>
	<line fill="none" stroke="#D7EEFB" stroke-width="1.5" stroke-miterlimit="10" x1="63.024" y1="54.947" x2="63.024" y2="31.212"/>
	<polyline fill="none" stroke="#D7EEFB" stroke-width="1.5" stroke-miterlimit="10" points="55.069,50.992 63.023,43.035 
		70.981,50.992 	"/>
	<line fill="none" stroke="#D7EEFB" stroke-width="1.5" stroke-miterlimit="10" x1="83.579" y1="43.08" x2="63.024" y2="31.212"/>
	<polyline fill="none" stroke="#D7EEFB" stroke-width="1.5" stroke-miterlimit="10" points="76.175,47.993 73.262,37.125 
		84.132,34.211 	"/>
	<line fill="none" stroke="#D7EEFB" stroke-width="1.5" stroke-miterlimit="10" x1="83.579" y1="19.346" x2="63.024" y2="31.212"/>
	<polyline fill="none" stroke="#D7EEFB" stroke-width="1.5" stroke-miterlimit="10" points="84.132,28.214 73.262,25.303 
		76.175,14.433 	"/>
</g>
<path fill="none" stroke="#D7EEFB" stroke-width="1.5" stroke-linecap="round" stroke-linejoin="round" stroke-miterlimit="10" d="
	M85.066,222.527l16.065,3.004l-1.269-4.297l6.819-4.359l-6.332-4.665l1.723-4.135L92,208.854l12.225-8.188l-5.262-1.521l3.83-10.613
	l-10.616,3.829l-1.52-5.262l-8.189,12.225l0.779-10.074l-4.137,1.725l-4.664-6.334l-4.361,6.82l-4.295-1.268l3.003,16.064
	c-2.019,0.395-3.966,1.253-5.683,2.558c3.087,1.781,6.361,4.227,9.537,7.219l-8.65,8.652l1.909,1.909l8.663-8.664
	c3.319,3.408,6.02,6.956,7.941,10.284C83.813,226.496,84.673,224.55,85.066,222.527z"/>
<g>
	<g>
		
			<path fill="none" stroke="#D7EEFB" stroke-width="1.5" stroke-linecap="round" stroke-linejoin="round" stroke-miterlimit="10" d="
			M182.313,240.803c6.49-1.894,13.221-0.505,17.354,4.229"/>
		
			<path fill="none" stroke="#D7EEFB" stroke-width="1.5" stroke-linecap="round" stroke-linejoin="round" stroke-miterlimit="10" d="
			M198.771,226.42c-2.749,6.179-2.274,13.034,1.863,17.768"/>
	</g>
	<g>
		<g>
			<path fill="#D7EEFB" d="M194.288,248.343c3.409,0,7.396,1.729,9.479,4.112l7.336,8.396c1.057,1.209,1.72,3.034,1.772,4.883
				c0.032,1.107-0.142,3.164-1.66,4.491c-1.172,1.024-2.646,1.588-4.15,1.588c-1.642,0-3.115-0.652-4.151-1.838
				c-1.233-1.41-1.632-3.385-1.064-5.283c0.181-0.604-0.037-1.259-0.545-1.635c-0.265-0.195-0.578-0.294-0.893-0.294
				c-0.289,0-0.579,0.083-0.831,0.251c-1.511,1.006-3.246,1.537-5.018,1.537c-2.396,0-4.55-0.955-6.066-2.69
				c-2.993-3.425-2.441-8.823,1.23-12.032C191.133,248.601,192.983,248.343,194.288,248.343 M194.288,246.843
				c-2.087,0-4.058,0.554-5.549,1.856c-4.302,3.761-4.917,10.094-1.372,14.149c1.858,2.127,4.491,3.203,7.195,3.203
				c2.006,0,4.052-0.593,5.849-1.788c-0.688,2.306-0.261,4.832,1.373,6.699c1.363,1.561,3.296,2.351,5.28,2.351
				c1.798,0,3.638-0.647,5.138-1.958c3.154-2.757,2.63-8.518,0.029-11.491l-7.335-8.396
				C202.58,248.818,198.228,246.843,194.288,246.843L194.288,246.843z"/>
		</g>
		<g>
			<path fill="#D7EEFB" d="M212.74,232.68c2.398,0,4.555,0.956,6.071,2.691c2.685,3.071,2.537,7.862-0.343,11.143
				c-0.417,0.475-0.492,1.159-0.188,1.712c0.267,0.484,0.773,0.777,1.314,0.777c0.076,0,0.154-0.006,0.232-0.019
				c0.313-0.049,0.629-0.073,0.941-0.073c1.643,0,3.116,0.652,4.151,1.837c0.982,1.122,1.441,2.592,1.291,4.136
				c-0.153,1.578-0.919,3.043-2.155,4.124c-1.086,0.948-2.462,1.146-3.425,1.146c-2.186,0-4.537-1.01-5.851-2.515l-7.34-8.397
				c-1.552-1.775-2.648-4.621-2.864-7.429c-0.227-2.955,0.555-5.446,2.145-6.834C208.418,233.496,210.556,232.68,212.74,232.68
				 M212.74,231.18c-2.452,0-4.961,0.883-7.006,2.67c-4.302,3.757-2.965,12.326,0.577,16.38l7.34,8.397
				c1.602,1.834,4.36,3.027,6.98,3.027c1.628,0,3.202-0.461,4.411-1.517c3.155-2.759,3.608-7.405,1.007-10.378
				c-1.364-1.562-3.297-2.349-5.28-2.349c-0.391,0-0.783,0.03-1.174,0.092c3.345-3.81,3.583-9.414,0.346-13.119
				C218.082,232.257,215.446,231.18,212.74,231.18L212.74,231.18z"/>
		</g>
	</g>
</g>
</svg>
