<?xml version="1.0" encoding="utf-8"?>
<!-- Generator: Adobe Illustrator 16.0.0, SVG Export Plug-In . SVG Version: 6.00 Build 0)  -->
<!DOCTYPE svg PUBLIC "-//W3C//DTD SVG 1.1//EN" "http://www.w3.org/Graphics/SVG/1.1/DTD/svg11.dtd">
<svg version="1.1" id="图层_1" xmlns="http://www.w3.org/2000/svg" xmlns:xlink="http://www.w3.org/1999/xlink" x="0px" y="0px"
	 width="16px" height="16px" viewBox="0 0 16 16" enable-background="new 0 0 16 16" xml:space="preserve">
<path fill="none" stroke="#4DA2D3" stroke-linecap="round" stroke-linejoin="round" stroke-miterlimit="10" d="M11.928,2.807
	c0,0.891-0.723,1.613-1.614,1.613H5.474c-0.891,0-1.613-0.723-1.613-1.613"/>
<path fill="none" stroke="#4DA2D3" stroke-linecap="round" stroke-linejoin="round" stroke-miterlimit="10" d="M14.901,5.537
	c0,0.853-0.692,1.545-1.546,1.545H2.431c-0.853,0-1.544-0.692-1.544-1.545"/>
<line fill="none" stroke="#4DA2D3" stroke-linecap="round" stroke-linejoin="round" stroke-miterlimit="10" x1="1.595" y1="8.196" x2="5.113" y2="8.196"/>
<line fill="none" stroke="#4DA2D3" stroke-linecap="round" stroke-linejoin="round" stroke-miterlimit="10" x1="10.369" y1="8.196" x2="13.888" y2="8.196"/>
<line fill="none" stroke="#4DA2D3" stroke-linecap="round" stroke-linejoin="round" stroke-miterlimit="10" x1="3.396" y1="8.283" x2="3.396" y2="13.973"/>
<line fill="none" stroke="#4DA2D3" stroke-linecap="round" stroke-linejoin="round" stroke-miterlimit="10" x1="12.128" y1="8.283" x2="12.128" y2="13.973"/>
<line fill="none" stroke="#4DA2D3" stroke-linecap="round" stroke-linejoin="round" stroke-miterlimit="10" x1="5.026" y1="4.42" x2="5.026" y2="6.909"/>
<line fill="none" stroke="#4DA2D3" stroke-linecap="round" stroke-linejoin="round" stroke-miterlimit="10" x1="10.434" y1="4.727" x2="10.434" y2="6.909"/>
<line fill="none" stroke="#4DA2D3" stroke-linecap="round" stroke-linejoin="round" stroke-miterlimit="10" x1="6.517" y1="5.797" x2="8.962" y2="5.797"/>
</svg>
