<?xml version="1.0" encoding="utf-8"?>
<!-- Generator: Adobe Illustrator 16.0.0, SVG Export Plug-In . SVG Version: 6.00 Build 0)  -->
<!DOCTYPE svg PUBLIC "-//W3C//DTD SVG 1.1//EN" "http://www.w3.org/Graphics/SVG/1.1/DTD/svg11.dtd">
<svg version="1.1" id="图层_1" xmlns="http://www.w3.org/2000/svg" xmlns:xlink="http://www.w3.org/1999/xlink" x="0px" y="0px"
	 width="30px" height="43.272px" viewBox="0 0 30 43.272" enable-background="new 0 0 30 43.272" xml:space="preserve">
<path fill="#4DA2D3" stroke="#FFFFFF" stroke-miterlimit="10" d="M26.367,14.531C26.367,20.808,15,32.577,15,32.577
	S3.633,20.808,3.633,14.531C3.633,8.253,8.722,3.164,15,3.164S26.367,8.253,26.367,14.531z"/>
<g>
	<path fill="#FFFFFF" d="M15.646,9.44l5.796-0.187c0.113-0.006,0.188-0.31,0.18-0.465c-0.009-0.156-0.114-0.451-0.228-0.446
		l-5.748,0.355V9.44z"/>
	<path fill="#FFFFFF" d="M9.478,9.64l1.911-0.062V8.96l-1.94,0.119C9.337,9.085,9.252,9.214,9.26,9.37
		C9.269,9.524,9.366,9.645,9.478,9.64z"/>
	<path fill="#FFFFFF" d="M21.427,10.079l-5.78,0.084v0.743l5.78,0.085c0.112,0,0.203-0.301,0.203-0.457S21.539,10.079,21.427,10.079
		z"/>
	<path fill="#FFFFFF" d="M11.389,10.226l-1.933,0.029c-0.113,0-0.203,0.125-0.203,0.28s0.09,0.281,0.203,0.281l1.933,0.028V10.226z"
		/>
</g>
<path fill="none" stroke="#FFFFFF" stroke-width="0.6" stroke-linecap="round" stroke-miterlimit="10" d="M12.964,7.785
	c0,0-0.571,0.003-0.632,0.739s0.059,3.222-0.021,3.559c-0.08,0.337-0.205,0.858-0.591,0.858"/>
<path fill="none" stroke="#FFFFFF" stroke-width="0.6" stroke-linecap="round" stroke-miterlimit="10" d="M14.103,7.785
	c0,0-0.57,0.003-0.632,0.739c-0.061,0.736,0.059,3.222-0.021,3.559c-0.08,0.337-0.203,0.857-0.59,0.857"/>
<path fill="none" stroke="#FFFFFF" stroke-width="0.6" stroke-linecap="round" stroke-miterlimit="10" d="M15.348,7.785
	c0,0-0.572,0.003-0.632,0.738c-0.061,0.736,0.058,3.223-0.021,3.559c-0.08,0.337-0.203,0.857-0.59,0.857"/>
<g>
	<g>
		<path fill="none" stroke="#FFFFFF" stroke-width="0.8" stroke-miterlimit="10" d="M20.228,12.985H8.897
			c-0.291,0-0.527,0.236-0.527,0.527c0,2.198,1.153,4.209,3.03,5.324v0.78c0,0.291,0.236,0.527,0.526,0.527h5.27
			c0.292,0,0.528-0.236,0.528-0.527v-0.78c1.876-1.115,3.029-3.126,3.029-5.324C20.754,13.221,20.519,12.985,20.228,12.985z"/>
	</g>
</g>
</svg>
