<?xml version="1.0" encoding="utf-8"?>
<!-- Generator: Adobe Illustrator 16.0.0, SVG Export Plug-In . SVG Version: 6.00 Build 0)  -->
<!DOCTYPE svg PUBLIC "-//W3C//DTD SVG 1.1//EN" "http://www.w3.org/Graphics/SVG/1.1/DTD/svg11.dtd">
<svg version="1.1" id="图层_1" xmlns="http://www.w3.org/2000/svg" xmlns:xlink="http://www.w3.org/1999/xlink" x="0px" y="0px"
	 width="16px" height="16px" viewBox="0 0 16 16" enable-background="new 0 0 16 16" xml:space="preserve">
<g>
	<g>
		<path fill="#4DA2D3" d="M1.321,3.11l2.365-0.07V2.248L1.287,2.381C1.156,2.388,1.059,2.558,1.068,2.759
			C1.078,2.959,1.19,3.116,1.321,3.11z"/>
		<path fill="#4DA2D3" d="M15.917,2.001c-0.012-0.201-0.136-0.586-0.267-0.58L8.834,1.893v0.962l6.873-0.248
			C15.838,2.6,15.927,2.203,15.917,2.001z"/>
		<path fill="#4DA2D3" d="M1.295,4.639L3.686,4.67V3.877L1.295,3.908c-0.13,0-0.236,0.164-0.236,0.366S1.165,4.639,1.295,4.639z"/>
		<path fill="#4DA2D3" d="M15.688,3.681L8.834,3.793v0.961l6.854,0.112c0.131,0,0.236-0.391,0.236-0.593S15.819,3.681,15.688,3.681z
			"/>
	</g>
	<path fill="#4DA2D3" d="M14.453,6.416h-7.05c0.15-0.279,0.225-0.618,0.275-0.855c0.056-0.249,0.047-0.702,0.028-1.421
		C7.692,3.588,7.675,2.505,7.711,2.055c0.049-0.631,0.415-0.682,0.49-0.684c0.153-0.003,0.277-0.139,0.275-0.303
		c0-0.167-0.125-0.3-0.281-0.3L8.194,0.768C7.866,0.77,7.227,1.03,7.152,2.003C7.114,2.488,7.129,3.589,7.145,4.155
		c0.014,0.532,0.028,1.083-0.012,1.268c-0.068,0.309-0.195,0.884-0.44,0.884c-0.087,0-0.166,0.042-0.216,0.109H5.898
		c0.15-0.279,0.225-0.618,0.276-0.855c0.054-0.249,0.046-0.702,0.026-1.421C6.187,3.588,6.172,2.505,6.205,2.055
		c0.049-0.631,0.416-0.682,0.491-0.684c0.154-0.003,0.276-0.139,0.276-0.303c0-0.167-0.127-0.3-0.28-0.3c0,0,0,0.001-0.002,0.001
		C6.361,0.77,5.721,1.03,5.646,2.005c-0.037,0.483-0.02,1.584-0.006,2.15c0.014,0.532,0.028,1.083-0.012,1.268
		C5.56,5.731,5.434,6.307,5.186,6.307c-0.087,0-0.164,0.042-0.215,0.109h-0.45C4.67,6.137,4.744,5.798,4.796,5.561
		c0.055-0.249,0.047-0.702,0.028-1.421c-0.015-0.551-0.03-1.634,0.004-2.084c0.049-0.631,0.416-0.682,0.49-0.684
		c0.153-0.003,0.275-0.139,0.275-0.303c0-0.167-0.123-0.297-0.282-0.299C4.984,0.77,4.344,1.03,4.268,2.005
		C4.23,2.488,4.247,3.589,4.262,4.155C4.276,4.688,4.291,5.238,4.25,5.423C4.183,5.731,4.056,6.307,3.808,6.307
		c-0.086,0-0.164,0.042-0.215,0.109H0.749c-0.351,0-0.637,0.308-0.637,0.685c0,2.857,1.395,5.014,3.666,6.465v1.017
		c0,0.378,0.285,0.686,0.637,0.686h6.375c0.352,0,0.637-0.308,0.637-0.686v-1.017c2.271-1.451,3.665-3.607,3.665-6.465
		C15.091,6.724,14.805,6.416,14.453,6.416z"/>
</g>
</svg>
